<svg width="62" height="59" viewBox="0 0 62 59" fill="none" xmlns="http://www.w3.org/2000/svg">
<g opacity="0.1" clip-path="url(#clip0)">
<path d="M15.5422 31.4704H56.7849L51.8472 58.926H10.6045L15.5422 31.4704Z" fill="white" stroke="#FFDD00" stroke-width="1.02"/>
<path d="M15.5422 31.4704H56.7849L51.8472 58.926H10.6045L15.5422 31.4704Z" fill="white" stroke="white" stroke-width="1.02"/>
<path d="M21.5272 0.0783081H61.9061L59.438 13.8953H19.0605L21.5272 0.0783081Z" fill="white" stroke="white" stroke-width="1.08"/>
<path d="M1.83368 19.8219H7.62056L5.88112 29.5602H0.0942383L1.83368 19.8219Z" fill="white" stroke="white" stroke-width="1.08"/>
<path d="M6.01462 27.1104H9.41123L8.91908 29.5573H5.52246L6.01462 27.1104Z" fill="white" stroke="white" stroke-width="1.14"/>
<path d="M10.7028 19.7842H16.2957L15.069 26.6463H9.47754L10.7028 19.7842Z" fill="white" stroke="white" stroke-width="1.08"/>
<path d="M17.8869 19.7842H23.4798L22.2546 26.6463H16.6616L17.8869 19.7842Z" fill="white" stroke="white" stroke-width="1.08"/>
<path fill-rule="evenodd" clip-rule="evenodd" d="M22.2458 26.7013C21.6229 28.2591 20.8472 29.669 18.573 29.6023L14.6313 29.5631L15.0941 27.1234L16.099 27.1626C16.6867 27.122 16.5926 26.8449 16.6867 26.6288V26.5897L22.2458 26.7013Z" fill="white" stroke="white" stroke-width="0.99"/>
<path d="M25.2355 19.8175H30.3187L28.5778 29.566H23.4946L25.2355 19.8175Z" fill="white" stroke="white" stroke-width="1.08"/>
<path d="M33.051 19.7609H38.1341L36.3932 29.508H31.3101L33.051 19.7609Z" fill="white" stroke="white" stroke-width="1.08"/>
<path d="M11.405 15.6707H12.5789L12.1587 18.1002H10.9849L11.405 15.6707Z" fill="white" stroke="white" stroke-width="1.09"/>
<path d="M15.012 15.6634H16.1858L15.7656 18.1001H14.5933L15.012 15.6634Z" fill="white" stroke="white" stroke-width="1.09"/>
<path d="M16.1076 16.6309H16.4514L16.3838 17.0051H16.0415L16.1076 16.6309Z" fill="white" stroke="white" stroke-width="1.08"/>
<path d="M16.2913 15.6605H16.9583L16.8701 16.1595H16.2017L16.2913 15.6605Z" fill="white" stroke="white" stroke-width="1.08"/>
<path d="M15.9299 17.5997H16.5984L16.5088 18.0987H15.8418L15.9299 17.5997Z" fill="white" stroke="white" stroke-width="1.08"/>
<path fill-rule="evenodd" clip-rule="evenodd" d="M12.6346 15.6649L14.1038 15.6852C14.8501 16.5467 14.5034 17.9145 13.5631 18.0929H12.1792L12.3408 17.5229H12.8829C13.1077 17.491 13.2135 17.2633 13.3339 17.0587C13.353 16.9143 13.353 16.768 13.3339 16.6236C13.2872 16.5232 13.214 16.4372 13.122 16.3744C13.03 16.3116 12.9225 16.2744 12.8109 16.2668L12.5759 16.2494L12.3599 17.5504L12.6346 15.6649Z" fill="white" stroke="white"/>
<path d="M18.868 15.6735H31.2042L30.7708 18.1001H18.4346L18.868 15.6735Z" fill="white" stroke="white" stroke-width="1.08"/>
<path d="M31.5584 15.6735H38.9319L38.4985 18.1001H31.125L31.5584 15.6735Z" fill="white" stroke="white" stroke-width="1.08"/>
<path d="M39.3641 15.6735H43.8552L43.4218 18.1001H38.9307L39.3641 15.6735Z" fill="white" stroke="white" stroke-width="1.08"/>
<path d="M44.3528 15.6765H47.0002L46.5595 18.1016H43.9106L44.3528 15.6765Z" fill="white" stroke="white" stroke-width="1.07"/>
<path d="M47.4779 15.6765H49.1806L48.7384 18.1016H47.0356L47.4779 15.6765Z" fill="white" stroke="white" stroke-width="1.07"/>
<path d="M49.8152 15.6735H50.8084L50.375 18.1001H49.3818L49.8152 15.6735Z" fill="white" stroke="white" stroke-width="1.08"/>
<path d="M51.4666 15.6765H52.1762L51.734 18.1016H51.0244L51.4666 15.6765Z" fill="white" stroke="white" stroke-width="1.07"/>
<path d="M52.8314 15.6634H53.3985L52.9474 18.1016H52.3804L52.8314 15.6634Z" fill="white" stroke="white" stroke-width="1.06"/>
<path d="M54.095 15.6765H54.4271L53.9849 18.1016H53.6528L54.095 15.6765Z" fill="white" stroke="white" stroke-width="1.07"/>
<path d="M55.3157 15.6735H55.6463L55.2129 18.1001H54.8823L55.3157 15.6735Z" fill="white" stroke="white" stroke-width="1.08"/>
<path d="M56.6498 15.6402H56.8055L56.3413 18.1016H56.1855L56.6498 15.6402Z" fill="white" stroke="white" stroke-width="1.05"/>
<path d="M57.7704 15.6591H57.9276L57.4751 18.1016H57.3179L57.7704 15.6591Z" fill="white" stroke="white" stroke-width="1.06"/>
<path d="M59.1986 15.6431H59.2926L58.8401 18.1016H58.7461L59.1986 15.6431Z" fill="white" stroke="white" stroke-width="1.06"/>
<path fill-rule="evenodd" clip-rule="evenodd" d="M31.2248 29.376L29.4736 25.0928L30.3948 19.9481L32.2092 24.4445L31.2248 29.376Z" fill="white" stroke="white" stroke-width="0.97"/>
<path d="M30.3276 19.8291H28.6763V25.0406H30.3276V19.8291Z" fill="white" stroke="white" stroke-width="1.09"/>
<path d="M33.0365 24.2878H31.3853V29.4442H33.0365V24.2878Z" fill="white" stroke="white" stroke-width="1.08"/>
<path d="M22.1166 26.0139H16.791V26.8827H22.1166V26.0139Z" fill="white" stroke="white" stroke-width="0.8"/>
<path d="M15.971 15.6605H16.6394L16.5498 16.1595H15.8813L15.971 15.6605Z" fill="white" stroke="white" stroke-width="1.08"/>
<path d="M15.7068 16.6091H16.2636L16.1901 17.0065H15.6318L15.7068 16.6091Z" fill="white" stroke="white" stroke-width="0.88"/>
<path d="M15.6965 17.6143H16.246L16.1725 18.0871H15.623L15.6965 17.6143Z" fill="white" stroke="white" stroke-width="0.95"/>
<path d="M12.1423 17.5345H12.6829L12.611 18.0842H12.0688L12.1423 17.5345Z" fill="white" stroke="white" stroke-width="1.01"/>
<path d="M12.5173 15.6837H13.0594L12.9874 16.2319H12.4453L12.5173 15.6837Z" fill="white" stroke="white" stroke-width="1.01"/>
</g>
<defs>
<clipPath id="clip0">
<rect width="62" height="59" fill="white"/>
</clipPath>
</defs>
</svg>
