<svg width="104" height="61" viewBox="0 0 104 61" fill="none" xmlns="http://www.w3.org/2000/svg">
<g opacity="0.1" clip-path="url(#clip0)">
<path d="M54.9061 24.649C53.6695 21.0388 52.4329 17.4286 51.8146 15.1878C51.1962 17.4286 49.9596 21.1633 48.723 24.649L44.8895 35.7286H58.8633L54.9061 24.649ZM67.8907 61L63.0678 47.3061H40.6849L35.8621 61H22.7539L46.1261 0H57.9977L81.2462 61H67.8907Z" fill="white"/>
<path d="M20.2804 32.1184C20.2178 32.33 20.1115 32.5259 19.9685 32.6933C19.8255 32.8606 19.649 32.9958 19.4506 33.0898C19.2521 33.1838 19.0362 33.2346 18.817 33.2388C18.5977 33.243 18.38 33.2006 18.1781 33.1143L1.11275 27.5123C0.902568 27.4492 0.707976 27.3422 0.541697 27.1983C0.375418 27.0543 0.241199 26.8767 0.147818 26.6769C0.0544367 26.4771 0.00399691 26.2598 -0.000202567 26.039C-0.00440204 25.8183 0.0377335 25.5992 0.123448 25.3959L1.48373 21.1633C1.54635 20.9517 1.65264 20.7558 1.79564 20.5884C1.93863 20.421 2.11512 20.2859 2.31356 20.1919C2.51199 20.0979 2.7279 20.0471 2.94717 20.0429C3.16644 20.0387 3.38413 20.0811 3.58599 20.1674L20.6514 25.8939C20.8616 25.9569 21.0562 26.0639 21.2224 26.2079C21.3887 26.3518 21.5229 26.5295 21.6163 26.7293C21.7097 26.929 21.7601 27.1464 21.7643 27.3671C21.7685 27.5879 21.7264 27.807 21.6407 28.0102L20.2804 32.1184Z" fill="white"/>
<path d="M19.2913 45.4388C19.4224 45.8521 19.3932 46.3 19.2097 46.6926C19.0262 47.0851 18.7019 47.3933 18.302 47.5551L6.18312 51.9122C5.75681 52.0344 5.30011 51.986 4.90838 51.7772C4.51666 51.5684 4.22018 51.2154 4.08086 50.7918L2.72057 46.5592C2.64157 46.364 2.60486 46.154 2.6129 45.9434C2.62094 45.7328 2.67353 45.5263 2.76718 45.3377C2.86082 45.1492 2.99335 44.9829 3.15591 44.8501C3.31848 44.7172 3.50734 44.6208 3.70987 44.5673L15.8288 40.3347C16.2394 40.2028 16.6843 40.2321 17.0743 40.4169C17.4642 40.6016 17.7703 40.928 17.931 41.3306L19.2913 45.4388Z" fill="white"/>
<path d="M15.9523 6.59795C15.7777 6.71952 15.6311 6.87738 15.5223 7.06087C15.4135 7.24437 15.345 7.44924 15.3216 7.66164C15.2981 7.87404 15.3202 8.08904 15.3864 8.2921C15.4525 8.49517 15.5612 8.68159 15.705 8.83877L23.3721 19.1714C23.5047 19.3506 23.6728 19.5001 23.8656 19.6106C24.0585 19.7212 24.272 19.7903 24.4927 19.8137C24.7135 19.8371 24.9366 19.8142 25.1481 19.7465C25.3596 19.6789 25.5549 19.5678 25.7217 19.4204L29.1842 16.6816C29.3588 16.5601 29.5055 16.4022 29.6143 16.2187C29.7231 16.0352 29.7915 15.8303 29.815 15.6179C29.8384 15.4055 29.8163 15.1905 29.7502 14.9875C29.684 14.7844 29.5754 14.598 29.4315 14.4408L21.7645 4.10816C21.6318 3.92902 21.4638 3.77948 21.2709 3.66894C21.0781 3.55839 20.8645 3.48925 20.6438 3.46586C20.4231 3.44247 20.2 3.46535 19.9885 3.53304C19.777 3.60073 19.5817 3.71177 19.4149 3.85918L15.9523 6.59795Z" fill="white"/>
<path d="M83.7192 32.1184C83.7818 32.33 83.8881 32.5259 84.0311 32.6933C84.1741 32.8606 84.3506 32.9958 84.549 33.0898C84.7475 33.1838 84.9634 33.2346 85.1827 33.2388C85.4019 33.243 85.6196 33.2006 85.8215 33.1143L102.887 27.3878C103.097 27.3247 103.292 27.2177 103.458 27.0738C103.624 26.9298 103.758 26.7522 103.852 26.5524C103.945 26.3526 103.996 26.1353 104 25.9145C104.004 25.6938 103.962 25.4747 103.876 25.2714L102.392 21.1633C102.33 20.9517 102.223 20.7558 102.08 20.5884C101.937 20.421 101.761 20.2859 101.562 20.1919C101.364 20.0979 101.148 20.0471 100.929 20.0429C100.71 20.0387 100.492 20.0811 100.29 20.1674L83.2246 25.8939C83.0144 25.9569 82.8198 26.0639 82.6535 26.2079C82.4872 26.3518 82.353 26.5295 82.2596 26.7293C82.1663 26.929 82.1158 27.1464 82.1116 27.3671C82.1074 27.5879 82.1496 27.807 82.2353 28.0102L83.7192 32.1184Z" fill="white"/>
<path d="M84.5847 45.4388C84.4537 45.8521 84.4828 46.3 84.6663 46.6926C84.8498 47.0851 85.1741 47.3933 85.574 47.5551L97.6929 51.9122C98.103 52.0569 98.5532 52.0336 98.9465 51.8473C99.3397 51.661 99.6445 51.3267 99.7952 50.9163L101.155 46.6837C101.286 46.2703 101.257 45.8224 101.074 45.4298C100.89 45.0373 100.566 44.7291 100.166 44.5673L88.0472 40.3347C87.6367 40.2028 87.1917 40.2321 86.8017 40.4169C86.4118 40.6016 86.1057 40.928 85.945 41.3306L84.5847 45.4388Z" fill="white"/>
<path d="M87.924 6.59795C88.0986 6.71952 88.2452 6.87738 88.354 7.06087C88.4629 7.24437 88.5313 7.44924 88.5547 7.66164C88.5782 7.87404 88.5561 8.08904 88.4899 8.2921C88.4238 8.49517 88.3151 8.68159 88.1713 8.83877L80.5042 19.1714C80.3716 19.3506 80.2035 19.5001 80.0107 19.6106C79.8178 19.7212 79.6043 19.7903 79.3836 19.8137C79.1629 19.8371 78.9397 19.8142 78.7282 19.7465C78.5167 19.6789 78.3214 19.5678 78.1546 19.4204L74.6921 16.6816C74.5175 16.5601 74.3708 16.4022 74.262 16.2187C74.1532 16.0352 74.0848 15.8303 74.0613 15.6179C74.0379 15.4055 74.06 15.1905 74.1261 14.9875C74.1923 14.7844 74.3009 14.598 74.4448 14.4408L82.1118 4.10816C82.2445 3.92902 82.4125 3.77948 82.6054 3.66894C82.7983 3.55839 83.0118 3.48925 83.2325 3.46586C83.4532 3.44247 83.6763 3.46535 83.8878 3.53304C84.0994 3.60073 84.2946 3.71177 84.4614 3.85918L87.924 6.59795Z" fill="white"/>
</g>
<defs>
<clipPath id="clip0">
<rect width="104" height="61" fill="white"/>
</clipPath>
</defs>
</svg>
