<svg width="114" height="74" viewBox="0 0 114 74" fill="none" xmlns="http://www.w3.org/2000/svg">
<g opacity="0.1">
<path d="M57 70.1112C30.9881 70.1112 9.79405 55.2303 9.79405 37C9.79405 18.7697 30.9881 3.88882 57 3.88882C83.0119 3.88882 104.206 18.7697 104.206 37C104.206 55.2303 83.0119 70.1112 57 70.1112ZM57 0C25.469 0 0 16.4544 0 37C0 57.5456 25.469 74 57 74C88.531 74 114 57.3657 114 37C114 16.6343 88.531 0 57 0Z" fill="white"/>
<path d="M59.4883 56.4666H53.2454C51.2775 56.4666 50.2145 55.5899 50.2145 53.9939V39.8323C50.2145 38.9556 50.5764 38.596 51.4585 38.596H59.4883C61.9139 38.5979 64.242 39.5457 65.9719 41.2355C67.7019 42.9253 68.6956 45.2222 68.7395 47.6324C68.755 48.7809 68.5426 49.9212 68.1144 50.988C67.6862 52.0549 67.0506 53.0274 66.2439 53.85C65.4372 54.6725 64.4753 55.329 63.4131 55.7818C62.351 56.2346 61.2094 56.475 60.0537 56.489C59.865 56.4923 59.6762 56.4848 59.4883 56.4666ZM50.2371 20.3657C50.2371 18.7697 51.3002 17.8931 53.268 17.8931H57.3621C59.3947 17.8077 61.3785 18.5261 62.8792 19.8911C64.38 21.2562 65.2753 23.1565 65.3692 25.1762V25.5133C65.3394 27.5981 64.4805 29.5864 62.9801 31.0437C61.4798 32.5011 59.46 33.309 57.3621 33.291H51.4811C50.599 33.291 50.2371 32.9313 50.2371 32.0547V20.3657ZM75.3442 36.1233C74.1002 35.5838 74.1002 35.404 75.3442 34.7071C76.913 33.7439 78.1988 32.3871 79.0724 30.7732C79.9459 29.1592 80.3764 27.3451 80.3204 25.5133C80.3204 18.6124 71.0692 11.7114 56.2764 11.7114C47.7404 11.6699 39.4245 14.401 32.5942 19.489C31.3502 20.5455 31.5311 21.085 31.893 21.4447L34.0418 23.9174C34.743 24.6367 35.1049 24.4568 35.4668 24.0972C37.0728 22.8609 37.2537 23.5577 37.2537 24.9739V49.4082C37.2537 50.8244 37.0728 51.5437 35.4668 50.2849C35.1049 49.9253 34.7656 49.7454 34.0418 50.4647L31.7347 53.1172C31.3728 53.6567 31.0335 54.1737 32.4585 55.0729C39.6015 59.9297 48.0293 62.5808 56.6835 62.6932C73.2406 62.6932 83.5776 55.7922 83.5776 46.5759C83.7133 40.3718 78.5561 37.3596 75.3442 36.1233Z" fill="white"/>
</g>
</svg>
