<svg width="33" height="33" viewBox="0 0 33 33" fill="none" xmlns="http://www.w3.org/2000/svg">
<rect width="33" height="33" fill="#EF5A64"/>
<path d="M20.3084 8H12.6913C10.1045 8 8 10.1046 8 12.6914V20.3085C8 22.8954 10.1045 24.9999 12.6913 24.9999H20.3084C22.8954 24.9999 24.9999 22.8953 24.9999 20.3085V12.6914C25 10.1046 22.8954 8 20.3084 8ZM23.4917 20.3085C23.4917 22.0637 22.0637 23.4916 20.3085 23.4916H12.6913C10.9362 23.4917 9.50831 22.0637 9.50831 20.3085V12.6914C9.50831 10.9363 10.9362 9.50831 12.6913 9.50831H20.3084C22.0636 9.50831 23.4916 10.9363 23.4916 12.6914V20.3085H23.4917Z" fill="white"/>
<path d="M16.5001 12.1198C14.0847 12.1198 12.1196 14.0848 12.1196 16.5002C12.1196 18.9155 14.0847 20.8804 16.5001 20.8804C18.9155 20.8804 20.8805 18.9155 20.8805 16.5002C20.8805 14.0848 18.9155 12.1198 16.5001 12.1198ZM16.5001 19.372C14.9164 19.372 13.6279 18.0837 13.6279 16.5001C13.6279 14.9164 14.9163 13.628 16.5001 13.628C18.0838 13.628 19.3722 14.9164 19.3722 16.5001C19.3722 18.0837 18.0837 19.372 16.5001 19.372Z" fill="white"/>
<path d="M21.0641 10.8408C20.7735 10.8408 20.488 10.9585 20.2828 11.1646C20.0766 11.3697 19.958 11.6553 19.958 11.9469C19.958 12.2376 20.0767 12.5231 20.2828 12.7292C20.4879 12.9344 20.7735 13.053 21.0641 13.053C21.3557 13.053 21.6403 12.9344 21.8464 12.7292C22.0526 12.5231 22.1702 12.2375 22.1702 11.9469C22.1702 11.6553 22.0526 11.3697 21.8464 11.1646C21.6413 10.9585 21.3557 10.8408 21.0641 10.8408Z" fill="white"/>
</svg>
