<svg width="124" height="42" viewBox="0 0 124 42" fill="none" xmlns="http://www.w3.org/2000/svg">
<mask id="mask0" mask-type="alpha" maskUnits="userSpaceOnUse" x="0" y="0" width="54" height="32">
<path fill-rule="evenodd" clip-rule="evenodd" d="M0 0.699829H53.68V31.0779H0V0.699829Z" fill="white"/>
</mask>
<g mask="url(#mask0)">
<path fill-rule="evenodd" clip-rule="evenodd" d="M21.0633 10.345V17.9868C21.6038 16.8267 21.8768 15.5357 21.8768 14.1256C21.8768 12.7457 21.6039 11.4817 21.0633 10.345ZM10.9212 9.16693C9.37725 9.16693 8.20477 10.2776 7.56319 11.522V9.97183C6.6483 10.7592 5.76683 12.1315 5.76683 14.1256C5.76683 16.1735 6.63569 17.6533 7.56319 18.4292V16.8671C8.20921 18.1679 9.32566 19.2074 10.9042 19.2074C10.9156 19.2074 10.9269 19.207 10.9382 19.2069C12.4851 19.1915 13.6517 18.0409 14.3133 16.7027V18.3309C15.2165 17.5128 16.0927 16.1401 16.0927 14.1256C16.0927 12.1195 15.2107 10.7959 14.3133 10.0156V11.5654C13.6676 10.2904 12.4356 9.18118 10.9212 9.16693ZM10.9213 22.5798C9.69304 22.5798 8.55895 22.2765 7.56324 21.6761V22.2379C6.10732 21.7427 4.98737 20.7435 4.18817 19.6345V21.0217C2.5815 19.6942 1.13605 17.4144 1.13605 14.1256C1.13605 10.9696 2.58879 8.72384 4.18817 7.38443V8.77625C4.98775 7.67951 6.0936 6.65733 7.56324 6.14531V6.71941C8.56343 6.10499 9.69757 5.79454 10.9213 5.79454C12.1549 5.80028 13.3006 6.11635 14.3133 6.7366V6.16146C15.7274 6.66027 16.8613 7.64873 17.6883 8.76719V7.39678C19.2155 8.66146 20.7405 10.8442 20.7405 14.1256C20.7405 17.4271 19.2253 19.7091 17.6883 20.9947V19.5971C16.9305 20.6416 15.8205 21.7042 14.3133 22.2239V21.6562C13.3143 22.2641 12.1688 22.5742 10.9213 22.5798ZM0 14.1255C0 12.7648 0.272842 11.5086 0.81311 10.3685V18.0123C0.272795 16.8444 0 15.545 0 14.1255ZM42.5637 24.445C42.5637 26.1489 42.1452 27.5955 41.3089 28.7677V20.1974C42.1452 21.3643 42.5637 22.7859 42.5637 24.445ZM35.8633 26.9354C35.4764 27.3941 35.0414 27.6929 34.5588 27.8412V27.2488C34.0796 27.7218 33.5312 27.952 32.9129 27.952C32.2582 27.952 31.6777 27.7075 31.1837 27.2041V27.8183C30.7177 27.663 30.298 27.3713 29.9304 26.9354C29.3516 26.2493 29.0729 25.4106 29.0729 24.4704C29.0729 23.5301 29.3516 22.7168 29.9304 22.0307C30.3005 21.5919 30.7147 21.2889 31.1837 21.127V21.7595C31.6737 21.2515 32.2415 20.9887 32.9129 20.9887C33.5514 20.9887 34.0964 21.2259 34.5588 21.686V21.0964C35.0649 21.2491 35.5048 21.5629 35.8847 22.0307C36.4635 22.7168 36.7421 23.5301 36.7421 24.4957C36.7421 25.436 36.442 26.2493 35.8633 26.9354ZM37.9339 18.3871V19.3211C37.0617 18.367 35.9116 17.8033 34.5588 17.8391V17.9267C34.2873 17.8673 34.0061 17.8375 33.7155 17.8375C32.7844 17.8375 31.9433 18.2077 31.1837 18.9587V18.2483C30.5402 18.5787 29.9449 19.1093 29.3945 19.8451V10.6703H25.1926V30.6965H29.3945V29.0701C29.9117 29.8438 30.5069 30.3907 31.1837 30.7164V30.0184C31.8854 30.7276 32.7066 31.0777 33.6553 31.0777C33.9679 31.0777 34.2691 31.0463 34.5588 30.9838V31.0771C35.9118 31.0882 37.0356 30.5914 37.9339 29.635V30.5384C39.7332 29.5845 41.0291 27.3805 41.0291 24.4449C41.0291 21.5354 39.7294 19.3753 37.9339 18.3871ZM53.68 0.699829H49.2523L48.0495 3.2218V1.95816L44.6744 9.03468V7.77099L43.0817 11.1105L43.0791 11.1162C42.8647 11.6015 42.4266 12.593 42.4266 12.593L41.2994 5.50434V9.3061L39.935 0.699829H35.6984L37.9243 11.6274V8.66871L39.4459 16.1382H43.8325L44.6744 14.5215V15.6789L48.0495 9.19765V10.355L51.4245 3.87378V5.03113L53.68 0.699829Z" fill="white"/>
</g>
<path d="M57.72 26.12C56.9933 26.12 56.3367 25.9633 55.75 25.65C55.17 25.3367 54.7133 24.9067 54.38 24.36C54.0533 23.8067 53.89 23.1867 53.89 22.5C53.89 21.8133 54.0533 21.1967 54.38 20.65C54.7133 20.0967 55.17 19.6633 55.75 19.35C56.3367 19.0367 56.9933 18.88 57.72 18.88C58.4467 18.88 59.1 19.0367 59.68 19.35C60.26 19.6633 60.7167 20.0967 61.05 20.65C61.3833 21.1967 61.55 21.8133 61.55 22.5C61.55 23.1867 61.3833 23.8067 61.05 24.36C60.7167 24.9067 60.26 25.3367 59.68 25.65C59.1 25.9633 58.4467 26.12 57.72 26.12ZM57.72 24.74C58.1333 24.74 58.5067 24.6467 58.84 24.46C59.1733 24.2667 59.4333 24 59.62 23.66C59.8133 23.32 59.91 22.9333 59.91 22.5C59.91 22.0667 59.8133 21.68 59.62 21.34C59.4333 21 59.1733 20.7367 58.84 20.55C58.5067 20.3567 58.1333 20.26 57.72 20.26C57.3067 20.26 56.9333 20.3567 56.6 20.55C56.2667 20.7367 56.0033 21 55.81 21.34C55.6233 21.68 55.53 22.0667 55.53 22.5C55.53 22.9333 55.6233 23.32 55.81 23.66C56.0033 24 56.2667 24.2667 56.6 24.46C56.9333 24.6467 57.3067 24.74 57.72 24.74ZM65.8375 20.54C66.3375 20.54 66.7908 20.6567 67.1975 20.89C67.6108 21.1167 67.9342 21.44 68.1675 21.86C68.4008 22.2733 68.5175 22.7567 68.5175 23.31C68.5175 23.8633 68.4008 24.35 68.1675 24.77C67.9342 25.1833 67.6108 25.5067 67.1975 25.74C66.7908 25.9667 66.3375 26.08 65.8375 26.08C65.1508 26.08 64.6108 25.8633 64.2175 25.43V27.94H62.6575V20.62H64.1475V21.24C64.5342 20.7733 65.0975 20.54 65.8375 20.54ZM65.5675 24.8C65.9675 24.8 66.2942 24.6667 66.5475 24.4C66.8075 24.1267 66.9375 23.7633 66.9375 23.31C66.9375 22.8567 66.8075 22.4967 66.5475 22.23C66.2942 21.9567 65.9675 21.82 65.5675 21.82C65.1675 21.82 64.8375 21.9567 64.5775 22.23C64.3242 22.4967 64.1975 22.8567 64.1975 23.31C64.1975 23.7633 64.3242 24.1267 64.5775 24.4C64.8375 24.6667 65.1675 24.8 65.5675 24.8ZM74.8318 23.33C74.8318 23.35 74.8218 23.49 74.8018 23.75H70.7318C70.8051 24.0833 70.9785 24.3467 71.2518 24.54C71.5251 24.7333 71.8651 24.83 72.2718 24.83C72.5518 24.83 72.7985 24.79 73.0118 24.71C73.2318 24.6233 73.4351 24.49 73.6218 24.31L74.4518 25.21C73.9451 25.79 73.2051 26.08 72.2318 26.08C71.6251 26.08 71.0885 25.9633 70.6218 25.73C70.1551 25.49 69.7951 25.16 69.5418 24.74C69.2885 24.32 69.1618 23.8433 69.1618 23.31C69.1618 22.7833 69.2851 22.31 69.5318 21.89C69.7851 21.4633 70.1285 21.1333 70.5618 20.9C71.0018 20.66 71.4918 20.54 72.0318 20.54C72.5585 20.54 73.0351 20.6533 73.4618 20.88C73.8885 21.1067 74.2218 21.4333 74.4618 21.86C74.7085 22.28 74.8318 22.77 74.8318 23.33ZM72.0418 21.72C71.6885 21.72 71.3918 21.82 71.1518 22.02C70.9118 22.22 70.7651 22.4933 70.7118 22.84H73.3618C73.3085 22.5 73.1618 22.23 72.9218 22.03C72.6818 21.8233 72.3885 21.72 72.0418 21.72ZM77.3604 21.33C77.5471 21.07 77.7971 20.8733 78.1104 20.74C78.4304 20.6067 78.7971 20.54 79.2104 20.54V21.98C79.0371 21.9667 78.9204 21.96 78.8604 21.96C78.4137 21.96 78.0637 22.0867 77.8104 22.34C77.5571 22.5867 77.4304 22.96 77.4304 23.46V26H75.8704V20.62H77.3604V21.33ZM82.2787 20.54C83.112 20.54 83.752 20.74 84.1987 21.14C84.6453 21.5333 84.8687 22.13 84.8687 22.93V26H83.4087V25.33C83.1153 25.83 82.5687 26.08 81.7687 26.08C81.3553 26.08 80.9953 26.01 80.6887 25.87C80.3887 25.73 80.1587 25.5367 79.9987 25.29C79.8387 25.0433 79.7587 24.7633 79.7587 24.45C79.7587 23.95 79.9453 23.5567 80.3187 23.27C80.6987 22.9833 81.282 22.84 82.0687 22.84H83.3087C83.3087 22.5 83.2053 22.24 82.9987 22.06C82.792 21.8733 82.482 21.78 82.0687 21.78C81.782 21.78 81.4987 21.8267 81.2187 21.92C80.9453 22.0067 80.712 22.1267 80.5187 22.28L79.9587 21.19C80.252 20.9833 80.602 20.8233 81.0087 20.71C81.422 20.5967 81.8453 20.54 82.2787 20.54ZM82.1587 25.03C82.4253 25.03 82.662 24.97 82.8687 24.85C83.0753 24.7233 83.222 24.54 83.3087 24.3V23.75H82.2387C81.5987 23.75 81.2787 23.96 81.2787 24.38C81.2787 24.58 81.3553 24.74 81.5087 24.86C81.6687 24.9733 81.8853 25.03 82.1587 25.03ZM94.3626 22.36C94.7626 22.4867 95.0759 22.7 95.3026 23C95.5292 23.2933 95.6426 23.6567 95.6426 24.09C95.6426 24.7033 95.4026 25.1767 94.9226 25.51C94.4492 25.8367 93.7559 26 92.8426 26H89.2226V19H92.6426C93.4959 19 94.1492 19.1633 94.6026 19.49C95.0626 19.8167 95.2926 20.26 95.2926 20.82C95.2926 21.16 95.2092 21.4633 95.0426 21.73C94.8826 21.9967 94.6559 22.2067 94.3626 22.36ZM90.8326 20.22V21.87H92.4426C92.8426 21.87 93.1459 21.8 93.3526 21.66C93.5592 21.52 93.6626 21.3133 93.6626 21.04C93.6626 20.7667 93.5592 20.5633 93.3526 20.43C93.1459 20.29 92.8426 20.22 92.4426 20.22H90.8326ZM92.7226 24.78C93.1492 24.78 93.4692 24.71 93.6826 24.57C93.9026 24.43 94.0126 24.2133 94.0126 23.92C94.0126 23.34 93.5826 23.05 92.7226 23.05H90.8326V24.78H92.7226ZM98.9291 20.54C99.7624 20.54 100.402 20.74 100.849 21.14C101.296 21.5333 101.519 22.13 101.519 22.93V26H100.059V25.33C99.7657 25.83 99.2191 26.08 98.4191 26.08C98.0057 26.08 97.6457 26.01 97.3391 25.87C97.0391 25.73 96.8091 25.5367 96.6491 25.29C96.4891 25.0433 96.4091 24.7633 96.4091 24.45C96.4091 23.95 96.5957 23.5567 96.9691 23.27C97.3491 22.9833 97.9324 22.84 98.7191 22.84H99.9591C99.9591 22.5 99.8557 22.24 99.6491 22.06C99.4424 21.8733 99.1324 21.78 98.7191 21.78C98.4324 21.78 98.1491 21.8267 97.8691 21.92C97.5957 22.0067 97.3624 22.1267 97.1691 22.28L96.6091 21.19C96.9024 20.9833 97.2524 20.8233 97.6591 20.71C98.0724 20.5967 98.4957 20.54 98.9291 20.54ZM98.8091 25.03C99.0757 25.03 99.3124 24.97 99.5191 24.85C99.7257 24.7233 99.8724 24.54 99.9591 24.3V23.75H98.8891C98.2491 23.75 97.9291 23.96 97.9291 24.38C97.9291 24.58 98.0057 24.74 98.1591 24.86C98.3191 24.9733 98.5357 25.03 98.8091 25.03ZM102.931 18.58H104.491V26H102.931V18.58ZM105.939 18.58H107.499V26H105.939V18.58ZM114.217 23.33C114.217 23.35 114.207 23.49 114.187 23.75H110.117C110.19 24.0833 110.363 24.3467 110.637 24.54C110.91 24.7333 111.25 24.83 111.657 24.83C111.937 24.83 112.183 24.79 112.397 24.71C112.617 24.6233 112.82 24.49 113.007 24.31L113.837 25.21C113.33 25.79 112.59 26.08 111.617 26.08C111.01 26.08 110.473 25.9633 110.007 25.73C109.54 25.49 109.18 25.16 108.927 24.74C108.673 24.32 108.547 23.8433 108.547 23.31C108.547 22.7833 108.67 22.31 108.917 21.89C109.17 21.4633 109.513 21.1333 109.947 20.9C110.387 20.66 110.877 20.54 111.417 20.54C111.943 20.54 112.42 20.6533 112.847 20.88C113.273 21.1067 113.607 21.4333 113.847 21.86C114.093 22.28 114.217 22.77 114.217 23.33ZM111.427 21.72C111.073 21.72 110.777 21.82 110.537 22.02C110.297 22.22 110.15 22.4933 110.097 22.84H112.747C112.693 22.5 112.547 22.23 112.307 22.03C112.067 21.8233 111.773 21.72 111.427 21.72ZM118.725 25.74C118.572 25.8533 118.382 25.94 118.155 26C117.935 26.0533 117.702 26.08 117.455 26.08C116.815 26.08 116.318 25.9167 115.965 25.59C115.618 25.2633 115.445 24.7833 115.445 24.15V21.94H114.615V20.74H115.445V19.43H117.005V20.74H118.345V21.94H117.005V24.13C117.005 24.3567 117.062 24.5333 117.175 24.66C117.295 24.78 117.462 24.84 117.675 24.84C117.922 24.84 118.132 24.7733 118.305 24.64L118.725 25.74ZM61.06 29L58.03 36H56.43L53.41 29H55.16L57.29 34L59.45 29H61.06ZM61.6809 28.58H63.2409V36H61.6809V28.58ZM66.8588 30.54C67.6921 30.54 68.3321 30.74 68.7788 31.14C69.2254 31.5333 69.4488 32.13 69.4488 32.93V36H67.9888V35.33C67.6954 35.83 67.1488 36.08 66.3488 36.08C65.9354 36.08 65.5754 36.01 65.2688 35.87C64.9688 35.73 64.7388 35.5367 64.5788 35.29C64.4188 35.0433 64.3388 34.7633 64.3388 34.45C64.3388 33.95 64.5254 33.5567 64.8988 33.27C65.2788 32.9833 65.8621 32.84 66.6488 32.84H67.8888C67.8888 32.5 67.7854 32.24 67.5788 32.06C67.3721 31.8733 67.0621 31.78 66.6488 31.78C66.3621 31.78 66.0788 31.8267 65.7988 31.92C65.5254 32.0067 65.2921 32.1267 65.0988 32.28L64.5388 31.19C64.8321 30.9833 65.1821 30.8233 65.5888 30.71C66.0021 30.5967 66.4254 30.54 66.8588 30.54ZM66.7388 35.03C67.0054 35.03 67.2421 34.97 67.4488 34.85C67.6554 34.7233 67.8021 34.54 67.8888 34.3V33.75H66.8188C66.1788 33.75 65.8588 33.96 65.8588 34.38C65.8588 34.58 65.9354 34.74 66.0888 34.86C66.2488 34.9733 66.4654 35.03 66.7388 35.03ZM73.0306 30.54C73.864 30.54 74.504 30.74 74.9506 31.14C75.3973 31.5333 75.6206 32.13 75.6206 32.93V36H74.1606V35.33C73.8673 35.83 73.3206 36.08 72.5206 36.08C72.1073 36.08 71.7473 36.01 71.4406 35.87C71.1406 35.73 70.9106 35.5367 70.7506 35.29C70.5906 35.0433 70.5106 34.7633 70.5106 34.45C70.5106 33.95 70.6973 33.5567 71.0706 33.27C71.4506 32.9833 72.034 32.84 72.8206 32.84H74.0606C74.0606 32.5 73.9573 32.24 73.7506 32.06C73.544 31.8733 73.234 31.78 72.8206 31.78C72.534 31.78 72.2506 31.8267 71.9706 31.92C71.6973 32.0067 71.464 32.1267 71.2706 32.28L70.7106 31.19C71.004 30.9833 71.354 30.8233 71.7606 30.71C72.174 30.5967 72.5973 30.54 73.0306 30.54ZM72.9106 35.03C73.1773 35.03 73.414 34.97 73.6206 34.85C73.8273 34.7233 73.974 34.54 74.0606 34.3V33.75H72.9906C72.3506 33.75 72.0306 33.96 72.0306 34.38C72.0306 34.58 72.1073 34.74 72.2606 34.86C72.4206 34.9733 72.6373 35.03 72.9106 35.03ZM80.3025 30.54C80.9692 30.54 81.5058 30.74 81.9125 31.14C82.3258 31.54 82.5325 32.1333 82.5325 32.92V36H80.9725V33.16C80.9725 32.7333 80.8792 32.4167 80.6925 32.21C80.5058 31.9967 80.2358 31.89 79.8825 31.89C79.4892 31.89 79.1758 32.0133 78.9425 32.26C78.7092 32.5 78.5925 32.86 78.5925 33.34V36H77.0325V30.62H78.5225V31.25C78.7292 31.0233 78.9858 30.85 79.2925 30.73C79.5992 30.6033 79.9358 30.54 80.3025 30.54ZM89.4852 28.58V36H87.9952V35.38C87.6085 35.8467 87.0485 36.08 86.3152 36.08C85.8085 36.08 85.3485 35.9667 84.9352 35.74C84.5285 35.5133 84.2085 35.19 83.9752 34.77C83.7418 34.35 83.6252 33.8633 83.6252 33.31C83.6252 32.7567 83.7418 32.27 83.9752 31.85C84.2085 31.43 84.5285 31.1067 84.9352 30.88C85.3485 30.6533 85.8085 30.54 86.3152 30.54C87.0018 30.54 87.5385 30.7567 87.9252 31.19V28.58H89.4852ZM86.5852 34.8C86.9785 34.8 87.3052 34.6667 87.5652 34.4C87.8252 34.1267 87.9552 33.7633 87.9552 33.31C87.9552 32.8567 87.8252 32.4967 87.5652 32.23C87.3052 31.9567 86.9785 31.82 86.5852 31.82C86.1852 31.82 85.8552 31.9567 85.5952 32.23C85.3352 32.4967 85.2052 32.8567 85.2052 33.31C85.2052 33.7633 85.3352 34.1267 85.5952 34.4C85.8552 34.6667 86.1852 34.8 86.5852 34.8ZM96.199 33.33C96.199 33.35 96.189 33.49 96.169 33.75H92.099C92.1723 34.0833 92.3457 34.3467 92.619 34.54C92.8923 34.7333 93.2323 34.83 93.639 34.83C93.919 34.83 94.1657 34.79 94.379 34.71C94.599 34.6233 94.8023 34.49 94.989 34.31L95.819 35.21C95.3123 35.79 94.5723 36.08 93.599 36.08C92.9923 36.08 92.4557 35.9633 91.989 35.73C91.5223 35.49 91.1623 35.16 90.909 34.74C90.6557 34.32 90.529 33.8433 90.529 33.31C90.529 32.7833 90.6523 32.31 90.899 31.89C91.1523 31.4633 91.4957 31.1333 91.929 30.9C92.369 30.66 92.859 30.54 93.399 30.54C93.9257 30.54 94.4023 30.6533 94.829 30.88C95.2557 31.1067 95.589 31.4333 95.829 31.86C96.0757 32.28 96.199 32.77 96.199 33.33ZM93.409 31.72C93.0557 31.72 92.759 31.82 92.519 32.02C92.279 32.22 92.1323 32.4933 92.079 32.84H94.729C94.6757 32.5 94.529 32.23 94.289 32.03C94.049 31.8233 93.7557 31.72 93.409 31.72ZM98.7276 31.33C98.9142 31.07 99.1642 30.8733 99.4776 30.74C99.7976 30.6067 100.164 30.54 100.578 30.54V31.98C100.404 31.9667 100.288 31.96 100.228 31.96C99.7809 31.96 99.4309 32.0867 99.1776 32.34C98.9242 32.5867 98.7976 32.96 98.7976 33.46V36H97.2376V30.62H98.7276V31.33ZM106.726 33.33C106.726 33.35 106.716 33.49 106.696 33.75H102.626C102.7 34.0833 102.873 34.3467 103.146 34.54C103.42 34.7333 103.76 34.83 104.166 34.83C104.446 34.83 104.693 34.79 104.906 34.71C105.126 34.6233 105.33 34.49 105.516 34.31L106.346 35.21C105.84 35.79 105.1 36.08 104.126 36.08C103.52 36.08 102.983 35.9633 102.516 35.73C102.05 35.49 101.69 35.16 101.436 34.74C101.183 34.32 101.056 33.8433 101.056 33.31C101.056 32.7833 101.18 32.31 101.426 31.89C101.68 31.4633 102.023 31.1333 102.456 30.9C102.896 30.66 103.386 30.54 103.926 30.54C104.453 30.54 104.93 30.6533 105.356 30.88C105.783 31.1067 106.116 31.4333 106.356 31.86C106.603 32.28 106.726 32.77 106.726 33.33ZM103.936 31.72C103.583 31.72 103.286 31.82 103.046 32.02C102.806 32.22 102.66 32.4933 102.606 32.84H105.256C105.203 32.5 105.056 32.23 104.816 32.03C104.576 31.8233 104.283 31.72 103.936 31.72ZM111.035 30.54C111.702 30.54 112.238 30.74 112.645 31.14C113.058 31.54 113.265 32.1333 113.265 32.92V36H111.705V33.16C111.705 32.7333 111.612 32.4167 111.425 32.21C111.238 31.9967 110.968 31.89 110.615 31.89C110.222 31.89 109.908 32.0133 109.675 32.26C109.442 32.5 109.325 32.86 109.325 33.34V36H107.765V30.62H109.255V31.25C109.462 31.0233 109.718 30.85 110.025 30.73C110.332 30.6033 110.668 30.54 111.035 30.54Z" fill="white"/>
</svg>
