<svg width="99" height="71" viewBox="0 0 99 71" fill="none" xmlns="http://www.w3.org/2000/svg">
<g opacity="0.1">
<path d="M39.2282 35.6151C38.7018 32.5791 37.3547 30.8081 34.8201 31.2609C32.7346 31.6329 31.6794 33.3027 32.076 37.1281L39.2656 35.8403L39.2282 35.6151Z" fill="white"/>
<path d="M15.7161 42.0768C17.839 41.6973 18.7346 40.2121 18.308 37.758C17.8939 35.3773 16.6166 34.4361 14.4188 34.8308C12.4057 35.19 11.4253 36.8067 11.802 38.9977C12.2236 41.3026 13.7203 42.436 15.7161 42.0768Z" fill="white"/>
<path d="M92.4241 0H6.57589C4.83327 0.00467461 3.16334 0.708815 1.93112 1.95851C0.698904 3.2082 0.00460925 4.90181 0 6.66914L0 64.3309C0.00460925 66.0982 0.698904 67.7918 1.93112 69.0415C3.16334 70.2912 4.83327 70.9953 6.57589 71H92.4241C94.1667 70.9953 95.8367 70.2912 97.0689 69.0415C98.3011 67.7918 98.9954 66.0982 99 64.3309V6.66914C98.9954 4.90181 98.3011 3.2082 97.0689 1.95851C95.8367 0.708815 94.1667 0.00467461 92.4241 0V0ZM18.6125 60.2145C11.3781 61.5074 8.99819 59.4808 8.30218 55.4733L13.042 54.6282C13.3713 56.5182 14.3342 57.2013 18.0962 56.5283C21.7483 55.8755 22.5391 54.6839 22.2897 53.2392C22.0402 51.8781 20.9026 51.2152 18.8171 51.5998L15.9108 52.1184C11.7672 52.8775 9.72912 51.3594 9.36989 49.2519C9.12042 47.8149 9.77153 46.2589 11.0288 45.0976C8.33461 44.1767 6.98251 42.5879 6.53847 40.0199C5.77011 35.5999 8.74124 32.1465 13.6956 31.2609C18.2608 30.5601 20.3663 28.9839 22.5142 27.1901L24.5323 31.0737C23.1802 31.901 21.3492 32.4248 18.9668 32.8447C21.5762 33.5076 23.068 34.8004 23.5095 37.3305C24.1856 41.2216 21.5862 44.6068 16.557 45.5075C15.7815 45.6594 14.9901 45.7096 14.202 45.6568C14.0049 45.8377 13.8548 46.0651 13.7647 46.3188C13.6747 46.5724 13.6475 46.8447 13.6856 47.1115C13.8054 47.7921 14.2519 48.3765 16.1803 48.0274L19.2088 47.4936C23.6792 46.6941 26.9671 48.5992 27.5459 51.9211C28.2444 55.9641 25.1959 59.0406 18.6125 60.2145ZM38.4325 48.7232C32.1011 49.8541 28.0498 46.2159 26.9571 39.9465C25.9069 33.9023 28.2943 28.6449 34.0694 27.6101C39.6574 26.5981 43.6288 29.7961 44.739 36.1818C44.8587 36.8624 44.9261 37.6999 44.9884 38.2792L32.6599 40.4803C33.7027 44.2754 35.6884 45.0799 38.223 44.6271C39.8969 44.3285 41.2165 43.5467 42.7258 42.0287L45.4474 44.6599C43.6539 46.8108 41.1699 48.2513 38.4325 48.7282V48.7232ZM61.725 43.9338L59.3476 30.2717C58.946 27.9669 58.0155 27.471 56.6758 27.7113C55.1466 27.9846 54.1338 29.2293 53.3605 31.1876L55.7653 45.0141L50.4742 45.9604L46.9817 25.9353L51.5643 25.1155L52.4125 27.5747C53.6598 25.2977 55.3687 23.8126 57.9007 23.3597C61.3658 22.7398 63.808 24.6399 64.4641 28.4197L67.0012 43.0028L61.725 43.9338ZM78.8308 41.505C74.7271 42.2008 72.2275 40.1945 71.4516 35.7366L69.7178 25.7607L66.7767 26.2869L66.1081 22.5172L69.0518 21.9909L68.2909 17.6064L73.4673 16.0176L74.3404 21.0397L78.8832 20.225L79.0204 24.0959L74.9965 24.817L76.7103 34.6841C77.0521 36.6499 77.8155 37.29 79.1576 37.0522C79.9491 36.8833 80.6793 36.4964 81.2681 35.9339L83.6904 39.0458C82.3424 40.3298 80.6529 41.1848 78.8308 41.505ZM83.7502 22.6159C83.6409 21.9746 83.7217 21.3149 83.9822 20.7202C84.2428 20.1254 84.6714 19.6225 85.2139 19.2749C85.7564 18.9274 86.3884 18.7509 87.0299 18.7677C87.6713 18.7846 88.2934 18.9941 88.8175 19.3696C89.3415 19.7452 89.7439 20.27 89.9737 20.8776C90.2036 21.4852 90.2505 22.1483 90.1086 22.7829C89.9668 23.4176 89.6424 23.9953 89.1767 24.443C88.7109 24.8906 88.1247 25.1881 87.4922 25.2977C87.072 25.3722 86.6414 25.3619 86.2252 25.2673C85.8089 25.1728 85.4151 24.9959 85.0663 24.7468C84.7176 24.4977 84.4207 24.1812 84.1927 23.8156C83.9647 23.4499 83.8101 23.0422 83.7378 22.6159H83.7502ZM89.5578 38.937C88.9265 39.0473 88.2772 38.9656 87.6918 38.7021C87.1063 38.4386 86.6109 38.0051 86.268 37.4564C85.9251 36.9077 85.7501 36.2683 85.7651 35.6189C85.78 34.9695 85.9843 34.3391 86.3521 33.8072C86.7198 33.2754 87.2347 32.8659 87.8317 32.6304C88.4286 32.3949 89.081 32.344 89.7065 32.4841C90.3319 32.6241 90.9025 32.9489 91.3462 33.4174C91.7899 33.886 92.0868 34.4772 92.1996 35.1167C92.2749 35.5436 92.2662 35.9814 92.174 36.4049C92.0818 36.8284 91.9079 37.2292 91.6624 37.5843C91.4168 37.9393 91.1045 38.2417 90.7433 38.4738C90.3821 38.706 89.9792 38.8634 89.5578 38.937Z" fill="white"/>
</g>
</svg>
