<svg width="401" height="414" viewBox="0 0 401 414" fill="none" xmlns="http://www.w3.org/2000/svg">
<g opacity="0.2">
<path d="M372.971 202.692V208.833C367.731 202.55 360.838 198.826 352.712 199.081V199.65C351.087 199.252 349.405 199.053 347.64 199.053C342.064 199.053 336.992 201.498 332.452 206.445V201.754C328.585 203.943 325.026 207.412 321.72 212.274V151.885H296.5V283.78H321.72V273.061C324.83 278.15 328.389 281.761 332.452 283.894V279.288C336.655 283.951 341.587 286.253 347.276 286.253C349.153 286.253 350.946 286.054 352.712 285.628V286.253C360.838 286.339 367.591 283.041 372.971 276.757V282.7C383.76 276.445 391.55 261.916 391.55 242.582C391.55 223.419 383.76 209.203 372.971 202.692ZM360.558 258.987C358.232 262.001 355.626 263.963 352.74 264.958V261.063C349.854 264.19 346.575 265.697 342.848 265.697C338.925 265.697 335.422 264.077 332.48 260.779V264.816C329.678 263.792 327.156 261.859 324.97 258.987C321.496 254.467 319.814 248.951 319.814 242.753C319.814 236.555 321.496 231.209 324.97 226.689C327.184 223.789 329.678 221.798 332.48 220.746V224.926C335.422 221.571 338.841 219.837 342.848 219.837C346.687 219.837 349.938 221.4 352.74 224.443V220.547C355.766 221.543 358.428 223.618 360.698 226.689C364.145 231.209 365.826 236.555 365.826 242.923C365.826 249.121 364.005 254.467 360.558 258.987ZM400.769 242.582C400.769 253.813 398.247 263.337 393.231 271.042V214.605C398.247 222.31 400.769 231.664 400.769 242.582Z" fill="#EF5A64"/>
<path d="M124.435 312H151L137.494 340.546V332.926L117.234 375.602V367.982L96.9741 410.659V403.039L91.9301 413.672H65.5897L56.4546 364.485V383.961L43.0882 312H68.504L76.6863 368.665V343.616L83.4396 390.301C83.4396 390.301 86.0736 383.762 87.3626 380.578L87.3906 380.549L96.946 358.543V366.873L117.206 320.274V328.604L124.435 312Z" fill="#EF5A64"/>
</g>
<path opacity="0.2" d="M-14 68.5073C-14 79.5287 -11.9454 89.7103 -7.83611 98.9473V37.0177C-11.9454 46.4646 -14 56.9961 -14 68.5073ZM68.8583 0C59.5416 0 50.9334 2.44919 43.388 7.31258V2.76408C32.3355 6.78775 23.8335 14.8701 17.7759 23.8621V12.6308C5.58984 23.3723 -5.39181 41.8461 -5.39181 68.5073C-5.39181 94.0839 5.62526 112.278 17.7759 123.124V111.858C23.8335 120.745 32.2292 129.037 43.388 133.166V128.512C50.9688 133.481 59.577 136 68.8583 136C78.2104 135.965 86.9249 133.376 94.612 128.373V133.026C105.346 128.967 113.954 120.955 120.224 111.893V122.984C131.808 112.733 143.392 95.0286 143.392 68.4374C143.392 41.6712 131.879 23.1973 120.224 12.7708V24.107C114.485 15.6398 106.054 7.03265 94.612 2.83405V7.41754C87.0311 2.55415 78.3167 0.0349884 68.8583 0ZM68.8583 108.709C57.1327 108.709 48.2411 99.717 43.388 89.6054V102.166C36.4447 95.7983 29.7495 84.672 29.7495 68.5073C29.7495 51.9228 36.3385 39.9218 43.388 33.6239V46.2897C48.2766 35.7581 56.7785 27.3259 68.752 27.3259C68.8229 27.3259 68.9292 27.3259 69 27.3259C80.7256 27.4659 89.5817 36.7728 94.612 47.6192V34.4286C101.449 41.0764 108.109 52.1677 108.109 68.5073C108.109 84.7769 101.414 95.4834 94.612 101.816V89.2555C89.688 99.612 80.3713 108.569 68.8583 108.709ZM145.836 99.1572V37.2277C149.945 46.6396 152 57.1011 152 68.5073C152 79.7036 149.91 89.9552 145.836 99.1572Z" fill="#EF5A64"/>
</svg>
