<svg width="16" height="21" viewBox="0 0 16 21" fill="none" xmlns="http://www.w3.org/2000/svg">
<path d="M9.35706 0.483154C9.35706 0.483154 9.95625 2.9798 9.95625 4.97711C9.95625 6.87456 8.65804 8.47242 6.76055 8.47242C4.86306 8.47242 3.36511 6.87456 3.36511 4.97711V4.67752C1.46766 6.97443 0.369141 9.87054 0.369141 12.9664C0.369141 17.0609 3.76458 20.4563 7.85907 20.4563C11.9536 20.4563 15.349 17.0609 15.349 12.9664C15.349 7.87322 13.0521 3.37926 9.35706 0.483154ZM7.85907 17.4603C6.16136 17.4603 4.8631 16.1621 4.8631 14.5642C4.8631 13.0662 5.86176 11.9677 7.45961 11.6681C9.15737 11.3686 10.855 10.5696 11.7538 9.27134C12.1533 10.4697 12.353 11.768 12.353 13.0662C12.353 15.463 10.3557 17.4603 7.85907 17.4603Z" fill="white"/>
</svg>
