<?xml version="1.0" encoding="UTF-8"?>
<svg width="288px" height="339px" viewBox="0 0 288 339" version="1.1" xmlns="http://www.w3.org/2000/svg" xmlns:xlink="http://www.w3.org/1999/xlink">
    <!-- Generator: Sketch 55.1 (78136) - https://sketchapp.com -->
    <title>Shape</title>
    <desc>Created with Sketch.</desc>
    <g id="Page-1" stroke="none" stroke-width="1" fill="none" fill-rule="evenodd">
        <g id="qrkaartje" transform="translate(0.000000, -34.000000)" fill="#EF5A64">
            <path d="M87.6279,52.9312 L87.6279,84.7224 C89.8765,79.8963 91.012,74.5255 91.012,68.6589 C91.012,62.9187 89.8769,57.6601 87.6279,52.9312 L87.6279,52.9312 Z M45.4334,48.0295 C39.0102,48.0295 34.1325,52.65 31.4634,57.8272 L31.4634,51.378 C27.6573,54.6536 23.9902,60.3628 23.9902,68.6585 C23.9902,77.1781 27.6048,83.3345 31.4634,86.5623 L31.4634,80.0636 C34.151,85.475 38.7956,89.7995 45.3625,89.7995 C45.4099,89.7995 45.4569,89.7979 45.5041,89.7975 C51.9393,89.7336 56.7925,84.9466 59.5449,79.3795 L59.5449,86.1534 C63.3025,82.7497 66.9478,77.0391 66.9478,68.6585 C66.9478,60.3129 63.2784,54.8065 59.5449,51.5602 L59.5449,58.0077 C56.8587,52.7033 51.7336,48.0888 45.4334,48.0295 L45.4334,48.0295 Z M45.4353,103.829 C40.3257,103.829 35.6076,102.568 31.4653,100.07 L31.4653,102.407 C25.4084,100.347 20.7492,96.1904 17.4244,91.5768 L17.4244,97.3478 C10.7404,91.825 4.72705,82.3406 4.72705,68.6586 C4.72705,55.5291 10.7707,46.1864 17.4244,40.6142 L17.4244,46.4044 C20.7508,41.8418 25.3513,37.5894 31.4653,35.4593 L31.4653,37.8476 C35.6263,35.2915 40.3445,34 45.4353,34 C50.5674,34.0239 55.3338,35.3388 59.5468,37.9191 L59.5468,35.5264 C65.4298,37.6016 70.1467,41.7138 73.5875,46.3667 L73.5875,40.6656 C79.9407,45.9269 86.2849,55.0074 86.2849,68.6586 C86.2849,82.3934 79.9817,91.887 73.5875,97.2354 L73.5875,91.4209 C70.4349,95.7662 65.8167,100.187 59.5468,102.349 L59.5468,99.9872 C55.3909,102.516 50.6251,103.806 45.4353,103.829 L45.4353,103.829 Z M0,68.6581 C0,62.9976 1.13507,57.7717 3.38268,53.0286 L3.38268,84.8279 C1.13488,79.9695 0,74.5636 0,68.6581 L0,68.6581 Z M288.269,177.305 C288.269,184.394 286.528,190.412 283.048,195.288 L283.048,159.634 C286.528,164.489 288.269,170.403 288.269,177.305 L288.269,177.305 Z M260.392,187.666 C258.783,189.574 256.973,190.817 254.965,191.434 L254.965,188.969 C252.972,190.937 250.69,191.895 248.118,191.895 C245.395,191.895 242.98,190.878 240.924,188.783 L240.924,191.339 C238.986,190.693 237.24,189.479 235.71,187.666 C233.302,184.811 232.143,181.322 232.143,177.411 C232.143,173.499 233.302,170.116 235.71,167.261 C237.25,165.436 238.973,164.175 240.924,163.502 L240.924,166.133 C242.963,164.02 245.325,162.926 248.118,162.926 C250.775,162.926 253.042,163.913 254.965,165.827 L254.965,163.374 C257.071,164.01 258.901,165.315 260.481,167.261 C262.889,170.116 264.048,173.499 264.048,177.516 C264.048,181.428 262.8,184.811 260.392,187.666 L260.392,187.666 Z M269.006,152.103 L269.006,155.989 C265.378,152.02 260.593,149.675 254.965,149.823 L254.965,150.188 C253.836,149.941 252.666,149.817 251.457,149.817 C247.583,149.817 244.084,151.357 240.924,154.481 L240.924,151.526 C238.247,152.9 235.77,155.108 233.48,158.169 L233.48,120 L216,120 L216,203.313 L233.48,203.313 L233.48,196.546 C235.632,199.765 238.108,202.04 240.924,203.395 L240.924,200.491 C243.843,203.442 247.259,204.899 251.206,204.899 C252.507,204.899 253.76,204.768 254.965,204.508 L254.965,204.896 C260.594,204.942 265.269,202.875 269.006,198.897 L269.006,202.655 C276.491,198.686 281.883,189.517 281.883,177.305 C281.883,165.201 276.476,156.214 269.006,152.103 L269.006,152.103 Z M126.807,308 L108.387,308 L103.383,318.492 L103.383,313.235 L89.342,342.674 L89.342,337.417 L82.7158,351.31 L82.7052,351.334 C81.8133,353.353 79.9908,357.478 79.9908,357.478 L75.3013,327.988 L75.3013,343.804 L69.6254,308 L52,308 L61.2605,353.461 L61.2605,341.152 L67.5902,372.226 L85.8396,372.226 L89.342,365.501 L89.342,370.315 L103.383,343.352 L103.383,348.167 L117.423,321.204 L117.423,326.019 L126.807,308 Z" id="Shape"></path>
        </g>
    </g>
</svg>