<svg width="59" height="52" viewBox="0 0 59 52" fill="none" xmlns="http://www.w3.org/2000/svg">
<g opacity="0.3">
<path opacity="0.372675" fill-rule="evenodd" clip-rule="evenodd" d="M25.403 11.6292V2.2923C25.403 1.02601 24.3207 0 22.9863 0C19.2385 0 15.8683 0.756406 12.9702 2.24774C10.0915 3.7301 7.63736 5.85794 5.67541 8.56956C3.76873 11.2081 2.32415 14.3924 1.38306 18.0343C0.465472 21.5862 0 25.6095 0 29.9937V49.708C0 50.9729 1.08137 51.9998 2.41711 51.9998H22.9854C24.3207 51.9998 25.403 50.9737 25.403 49.708V29.9937C25.403 28.7279 24.3207 27.7009 22.9854 27.7009H15.271C15.6302 18.5553 18.2215 13.9215 22.9854 13.9215C24.3207 13.9215 25.403 12.8955 25.403 11.6292ZM59 11.6293C59 12.8946 57.9168 13.9216 56.5822 13.9216C51.8849 13.9216 49.3314 18.5554 48.9776 27.7009H56.582C57.9168 27.7009 58.9988 28.728 58.9988 29.9937V49.7082C58.9988 50.973 57.9166 52 56.582 52H36.0144C34.6795 52 33.5968 50.9738 33.5968 49.7082V29.9939C33.5968 25.6117 34.0623 21.5884 34.9794 18.0355C35.9206 14.3927 37.3652 11.2082 39.2712 8.56972C41.2335 5.8581 43.6889 3.73026 46.5681 2.2479C49.4653 0.756727 52.836 0.00016029 56.5822 0.00016029C57.9169 0.00016029 59 1.02617 59 2.29246V11.6293Z" fill="#EF5A64"/>
</g>
</svg>
