<svg width="24" height="23" viewBox="0 0 24 23" fill="none" xmlns="http://www.w3.org/2000/svg">
<path d="M23.9788 8.75352C23.9282 8.59712 23.7937 8.48305 23.6317 8.45929L15.8604 7.32341L12.385 0.241089C12.3129 0.0933249 12.1634 0 12.0001 0C11.8369 0 11.6869 0.0933249 11.6152 0.241089L8.13938 7.32384L0.368066 8.45972C0.20611 8.48349 0.0720775 8.59712 0.0209561 8.75395C-0.0293061 8.90993 0.0123643 9.08189 0.129643 9.19638L5.75343 14.7095L4.42556 22.4943C4.39806 22.6563 4.46422 22.8201 4.59611 22.9169C4.72885 23.0145 4.90455 23.027 5.04847 22.9497L12.0001 19.2746L18.9509 22.9497C19.0136 22.983 19.0828 22.9994 19.1511 22.9994C19.24 22.9994 19.3285 22.9717 19.4037 22.9169C19.536 22.8201 19.6022 22.6563 19.5742 22.4943L18.2468 14.7099L23.8706 9.19638C23.9874 9.08102 24.0295 8.9095 23.9788 8.75352Z" fill="white"/>
</svg>
