<svg width="22" height="20" viewBox="0 0 22 20" fill="none" xmlns="http://www.w3.org/2000/svg">
<path d="M21.0003 7.70296C20.958 7.57215 20.8455 7.47675 20.71 7.45688L14.2104 6.50687L11.3037 0.583474C11.2433 0.459889 11.1183 0.381836 10.9818 0.381836C10.8452 0.381836 10.7198 0.459889 10.6598 0.583474L7.75279 6.50723L1.25315 7.45724C1.1177 7.47712 1.0056 7.57215 0.962839 7.70333C0.920802 7.83378 0.955654 7.9776 1.05374 8.07336L5.75727 12.6843L4.64669 19.1953C4.62369 19.3308 4.67903 19.4677 4.78933 19.5487C4.90035 19.6303 5.0473 19.6408 5.16767 19.5761L10.9818 16.5024L16.7952 19.5761C16.8476 19.604 16.9055 19.6177 16.9626 19.6177C17.037 19.6177 17.111 19.5946 17.1739 19.5487C17.2845 19.4677 17.3399 19.3308 17.3165 19.1953L16.2063 12.6847L20.9098 8.07336C21.0075 7.97687 21.0427 7.83341 21.0003 7.70296Z" fill="#EF5A64"/>
</svg>
