<svg width="33" height="33" viewBox="0 0 33 33" fill="none" xmlns="http://www.w3.org/2000/svg">
<rect width="33" height="33" fill="#EF5A64"/>
<g clip-path="url(#clip0)">
<path d="M26 11.4194C25.3375 11.7129 24.6266 11.912 23.8797 12.0009C24.6424 11.5442 25.2261 10.8199 25.5028 9.95939C24.7874 10.3823 23.9978 10.6894 23.1565 10.8559C22.4827 10.1371 21.5244 9.68945 20.4615 9.68945C18.4222 9.68945 16.7688 11.3429 16.7688 13.381C16.7688 13.6701 16.8014 13.9524 16.8644 14.2224C13.796 14.0683 11.0751 12.5982 9.25412 10.3643C8.93579 10.9087 8.75471 11.5431 8.75471 12.2202C8.75471 13.5014 9.40709 14.6318 10.3969 15.2931C9.79176 15.2729 9.22262 15.1064 8.72435 14.8297V14.8758C8.72435 16.6643 9.99762 18.1569 11.6859 18.4966C11.3766 18.5798 11.0504 18.6259 10.713 18.6259C10.4745 18.6259 10.2439 18.6023 10.0179 18.5573C10.488 20.0251 11.8513 21.0926 13.4665 21.1218C12.2033 22.1117 10.6106 22.6999 8.88071 22.6999C8.58265 22.6999 8.28906 22.6819 8 22.6493C9.63432 23.6987 11.5746 24.3106 13.6599 24.3106C20.4525 24.3106 24.1655 18.6844 24.1655 13.8051L24.1531 13.327C24.8786 12.8096 25.5062 12.1595 26 11.4194Z" fill="white"/>
</g>
<defs>
<clipPath id="clip0">
<rect width="18" height="18" fill="white" transform="translate(8 8)"/>
</clipPath>
</defs>
</svg>
