<svg width="29" height="29" viewBox="0 0 29 29" fill="none" xmlns="http://www.w3.org/2000/svg">
<g clip-path="url(#clip0)">
<path d="M14.0482 27.5937C21.5291 27.5937 27.5935 21.5292 27.5935 14.0484C27.5935 6.56754 21.5291 0.503113 14.0482 0.503113C6.56736 0.503113 0.50293 6.56754 0.50293 14.0484C0.50293 21.5292 6.56736 27.5937 14.0482 27.5937Z" fill="#264B79" stroke="white" stroke-width="1.00622" stroke-miterlimit="10"/>
<path d="M14.1257 23.8397C15.6432 23.8397 16.8734 22.1763 16.8734 20.1244C16.8734 18.0725 15.6432 16.4091 14.1257 16.4091C12.6081 16.4091 11.3779 18.0725 11.3779 20.1244C11.3779 22.1763 12.6081 23.8397 14.1257 23.8397Z" fill="white"/>
<path d="M18.4992 12.1365C19.5252 12.1365 20.3569 11.0137 20.3569 9.62872C20.3569 8.2437 19.5252 7.12091 18.4992 7.12091C17.4733 7.12091 16.6416 8.2437 16.6416 9.62872C16.6416 11.0137 17.4733 12.1365 18.4992 12.1365Z" fill="white"/>
<path d="M9.51975 12.1365C10.5457 12.1365 11.3774 11.0137 11.3774 9.62872C11.3774 8.2437 10.5457 7.12091 9.51975 7.12091C8.4938 7.12091 7.66211 8.2437 7.66211 9.62872C7.66211 11.0137 8.4938 12.1365 9.51975 12.1365Z" fill="white"/>
</g>
<defs>
<clipPath id="clip0">
<rect width="28.0968" height="28.0968" fill="white"/>
</clipPath>
</defs>
</svg>
