<svg width="28" height="28" viewBox="0 0 28 28" fill="none" xmlns="http://www.w3.org/2000/svg">
<g clip-path="url(#clip0)">
<path d="M13.9702 27.4408C21.4096 27.4408 27.4404 21.41 27.4404 13.9706C27.4404 6.53119 21.4096 0.500366 13.9702 0.500366C6.53082 0.500366 0.5 6.53119 0.5 13.9706C0.5 21.41 6.53082 27.4408 13.9702 27.4408Z" fill="#264B79" stroke="white" stroke-miterlimit="10"/>
<path d="M5.92679 12.4541C5.28792 11.9153 4.92614 11.3611 4.81069 10.7068C4.69523 10.0679 4.80299 9.44447 5.11858 8.93645C5.44186 8.42843 5.94218 8.08205 6.54257 7.97429C6.98901 7.88962 7.42776 7.9589 7.83571 8.16672C8.04354 8.27448 8.24367 8.41303 8.4207 8.59007C8.52847 8.35915 8.65932 8.15902 8.82096 7.98199C9.12885 7.63561 9.51372 7.42009 9.96016 7.33542C10.5605 7.22766 11.1532 7.35851 11.6382 7.72028C12.1154 8.07435 12.4387 8.62086 12.5618 9.25973C12.685 9.914 12.5541 10.5606 12.1462 11.2918C11.7844 11.9461 11.2148 12.6465 10.5605 13.4547C10.3373 13.7318 10.0833 14.0474 9.82161 14.3784C9.75233 14.4631 9.65227 14.5247 9.54451 14.5478L9.22122 14.4939C8.85945 14.2784 8.50537 14.0782 8.19748 13.9012" fill="white"/>
<path d="M5.92679 12.4541C5.28792 11.9153 4.92614 11.3611 4.81069 10.7068C4.69523 10.0679 4.80299 9.44447 5.11858 8.93645C5.44186 8.42843 5.94218 8.08205 6.54257 7.97429C6.98901 7.88962 7.42776 7.9589 7.83571 8.16672C8.04354 8.27448 8.24367 8.41303 8.4207 8.59007C8.52847 8.35915 8.65932 8.15902 8.82096 7.98199C9.12885 7.63561 9.51372 7.42009 9.96016 7.33542C10.5605 7.22766 11.1532 7.35851 11.6382 7.72028C12.1154 8.07435 12.4387 8.62086 12.5618 9.25973C12.685 9.914 12.5541 10.5606 12.1462 11.2918C11.7844 11.9461 11.2148 12.6465 10.5605 13.4547C10.3373 13.7318 10.0833 14.0474 9.82161 14.3784C9.75233 14.4631 9.65227 14.5247 9.54451 14.5478L9.22122 14.4939C8.85945 14.2784 8.50537 14.0782 8.19748 13.9012" stroke="white" stroke-width="0.307891" stroke-miterlimit="10" stroke-linecap="round" stroke-linejoin="round"/>
<path d="M9.52911 14.5478C9.42135 14.5708 9.30589 14.5478 9.20583 14.4939C8.84405 14.2784 8.48998 14.0782 8.18209 13.9012C7.28151 13.3778 6.50408 12.9313 5.92679 12.4541C5.28792 11.9153 4.92614 11.3611 4.81069 10.7068C4.69523 10.0679 4.80299 9.44447 5.11858 8.93645C5.44186 8.42843 5.94218 8.08205 6.54257 7.97429C6.98901 7.88962 7.42776 7.9589 7.83571 8.16672C8.04354 8.27448 8.24367 8.41303 8.4207 8.59007C8.52847 8.35915 8.65932 8.15902 8.82096 7.98199C9.12885 7.63561 9.51372 7.42009 9.96016 7.33542C10.5605 7.22766 11.1532 7.35851 11.6382 7.72028C12.1154 8.07436 12.4387 8.62086 12.5618 9.25973C12.685 9.914 12.5541 10.5606 12.1462 11.2918C11.7844 11.9461 11.2148 12.6465 10.5605 13.4547C10.3373 13.7318 10.0833 14.0474 9.82161 14.3784C9.73694 14.4708 9.64457 14.5324 9.52911 14.5478ZM6.62724 8.42843C6.15771 8.5131 5.75745 8.7825 5.51114 9.18276C5.25713 9.59072 5.17246 10.0987 5.26482 10.6222C5.36489 11.1764 5.66508 11.6305 6.22698 12.1C6.77349 12.5542 7.53552 12.9929 8.4207 13.5009C8.72859 13.678 9.08267 13.8781 9.44444 14.1013C9.71384 13.7626 9.96785 13.4547 10.1911 13.1699C10.8376 12.3771 11.3918 11.6921 11.7382 11.0763C12.0923 10.4374 12.2078 9.9063 12.1077 9.3521C12.0076 8.82869 11.7459 8.38225 11.3611 8.09745C10.9839 7.81265 10.5144 7.70489 10.0448 7.79725C9.69845 7.85883 9.40595 8.02817 9.16734 8.29758C8.95182 8.53619 8.82866 8.81329 8.75938 8.99803C8.7209 9.09809 8.64392 9.16737 8.53616 9.18276C8.4361 9.19816 8.33603 9.16737 8.26676 9.09039C8.13591 8.93645 7.91268 8.72862 7.62789 8.58237C7.3046 8.41303 6.96592 8.36685 6.62724 8.42843Z" fill="white" stroke="white" stroke-width="0.307891" stroke-miterlimit="10" stroke-linecap="round" stroke-linejoin="round"/>
<path d="M19.6744 13.9013C19.3665 14.0783 19.0202 14.2784 18.6507 14.494L18.3274 14.5478C18.2197 14.5248 18.1196 14.4709 18.0503 14.3785C17.7886 14.0475 17.5346 13.7319 17.3114 13.4548C16.6571 12.6466 16.0875 11.9462 15.7257 11.2919C15.3178 10.5607 15.1869 9.91409 15.3101 9.25982C15.4255 8.62095 15.7565 8.07444 16.2338 7.72037C16.7187 7.3586 17.3114 7.22005 17.9118 7.33551C18.3582 7.42018 18.7431 7.6357 19.051 7.98208C19.2049 8.15911 19.3435 8.35924 19.4512 8.59016C19.636 8.41312 19.8284 8.27457 20.0362 8.16681C20.4519 7.95129 20.8829 7.88971 21.3294 7.97438C21.9297 8.08214 22.4301 8.42852 22.7533 8.93654C23.0689 9.43686 23.1767 10.068 23.0612 10.7069C22.9381 11.3612 22.584 11.9154 21.9451 12.4542" fill="white"/>
<path d="M19.6744 13.9013C19.3665 14.0783 19.0202 14.2784 18.6507 14.494L18.3274 14.5478C18.2197 14.5248 18.1196 14.4709 18.0503 14.3785C17.7886 14.0475 17.5346 13.7319 17.3114 13.4548C16.6571 12.6466 16.0875 11.9462 15.7257 11.2919C15.3178 10.5607 15.1869 9.91409 15.3101 9.25982C15.4255 8.62095 15.7565 8.07444 16.2338 7.72037C16.7187 7.3586 17.3114 7.22005 17.9118 7.33551C18.3582 7.42018 18.7431 7.6357 19.051 7.98208C19.2049 8.15911 19.3435 8.35924 19.4512 8.59016C19.636 8.41312 19.8284 8.27457 20.0362 8.16681C20.4519 7.95129 20.8829 7.88971 21.3294 7.97438C21.9297 8.08214 22.4301 8.42852 22.7533 8.93654C23.0689 9.43686 23.1767 10.068 23.0612 10.7069C22.9381 11.3612 22.584 11.9154 21.9451 12.4542" stroke="white" stroke-width="0.307891" stroke-miterlimit="10" stroke-linecap="round" stroke-linejoin="round"/>
<path d="M18.0581 14.3862C17.7964 14.0552 17.5424 13.7396 17.3192 13.4625C16.6649 12.6543 16.0953 11.9539 15.7336 11.2996C15.3256 10.5684 15.1947 9.92178 15.3179 9.26751C15.4334 8.62864 15.7643 8.08213 16.2416 7.72806C16.7265 7.36629 17.3192 7.22774 17.9196 7.3432C18.366 7.42787 18.7509 7.64339 19.0588 7.98977C19.2127 8.1668 19.3513 8.36693 19.459 8.59785C19.6438 8.42081 19.8362 8.28226 20.044 8.1745C20.4597 7.95898 20.8907 7.8974 21.3372 7.98207C21.9376 8.08983 22.4379 8.43621 22.7612 8.94423C23.0767 9.44455 23.1845 10.0757 23.069 10.7146C22.9459 11.3689 22.5918 11.9231 21.9529 12.4619C21.3756 12.9391 20.5982 13.3933 19.6899 13.909C19.3821 14.086 19.0357 14.2861 18.6662 14.5017C18.5661 14.5555 18.4584 14.5786 18.3429 14.5555C18.2198 14.5324 18.1274 14.4709 18.0581 14.3862ZM20.2365 8.58246C19.9517 8.72871 19.7361 8.93653 19.5976 9.09048C19.5283 9.16745 19.4282 9.20594 19.3282 9.18284C19.2281 9.16745 19.1434 9.09817 19.105 8.99811C19.0357 8.80568 18.9048 8.53627 18.697 8.29766C18.4584 8.02825 18.1582 7.85891 17.8195 7.79734C17.35 7.71267 16.8804 7.82043 16.5033 8.09753C16.1184 8.38233 15.8567 8.82877 15.7566 9.35218C15.6566 9.90639 15.7643 10.4375 16.1261 11.0764C16.4725 11.6922 17.0267 12.3772 17.6733 13.17C17.8965 13.4471 18.1505 13.7627 18.4199 14.1014C18.7894 13.8859 19.1357 13.6857 19.4436 13.501C20.3288 12.993 21.0909 12.5542 21.6374 12.1001C22.1993 11.6306 22.4995 11.1764 22.5995 10.6222C22.6996 10.0988 22.6072 9.5908 22.3532 9.18284C22.0992 8.78259 21.7066 8.51318 21.2371 8.42851C20.8984 8.36693 20.5597 8.41312 20.2365 8.58246Z" fill="white" stroke="white" stroke-width="0.307891" stroke-miterlimit="10" stroke-linecap="round" stroke-linejoin="round"/>
<path d="M8.50586 17.9701C8.50586 17.9701 8.81375 22.6654 13.9709 22.6654C19.1281 22.6654 19.513 17.9701 19.513 17.9701C19.513 17.9701 13.663 18.8168 8.50586 17.9701Z" fill="white"/>
</g>
<defs>
<clipPath id="clip0">
<rect width="27.9411" height="27.9411" fill="white"/>
</clipPath>
</defs>
</svg>
