<svg width="492" height="77" viewBox="0 0 492 77" fill="none" xmlns="http://www.w3.org/2000/svg">
<mask id="mask0" mask-type="alpha" maskUnits="userSpaceOnUse" x="0" y="0" width="484" height="77">
<path d="M124.756 1.6833L101.194 75.317H74.5804L62.6938 35.9755L50.1761 75.317H23.5628L0 1.6833H25.5614L38.3947 43.5493L51.9643 1.6833H74.7907L87.6241 44.0752L101.194 1.6833H124.756Z" fill="#EF5A64"/>
<path d="M202.851 1.6833V75.317H178.026V48.1777H155.094V75.317H130.269V1.6833H155.094V27.7707H178.026V1.6833H202.851Z" fill="#EF5A64"/>
<path d="M276.033 56.593V75.317H214.812V1.6833H274.666V20.4073H239.217V29.0329H270.353V46.9154H239.217V56.593H276.033Z" fill="#EF5A64"/>
<path d="M346.811 56.593V75.317H285.59V1.6833H345.444V20.4073H309.994V29.0329H341.131V46.9154H309.994V56.593H346.811Z" fill="#EF5A64"/>
<path d="M356.368 1.6833H381.193V56.067H414.433V75.317H356.368V1.6833Z" fill="#EF5A64"/>
<path d="M448.745 77C442.644 77 436.683 76.3338 430.863 75.0014C425.112 73.5988 420.379 71.7405 416.662 69.4263L424.657 51.3334C428.163 53.3671 432.09 55.0151 436.438 56.2774C440.786 57.4696 444.958 58.0656 448.956 58.0656C452.392 58.0656 454.846 57.7501 456.319 57.1189C457.792 56.4177 458.528 55.4008 458.528 54.0684C458.528 52.5256 457.546 51.3685 455.583 50.5971C453.689 49.8257 450.534 48.9842 446.116 48.0725C440.435 46.8803 435.702 45.618 431.915 44.2856C428.128 42.8831 424.832 40.639 422.027 37.5534C419.222 34.3977 417.819 30.155 417.819 24.8253C417.819 20.1969 419.117 15.9893 421.711 12.2024C424.306 8.41552 428.163 5.43511 433.282 3.26116C438.472 1.08722 444.748 0.000244141 452.111 0.000244141C457.161 0.000244141 462.105 0.561262 466.943 1.6833C471.852 2.7352 476.165 4.31307 479.882 6.41689L472.413 24.4045C465.19 20.7579 458.353 18.9346 451.901 18.9346C445.519 18.9346 442.329 20.4774 442.329 23.563C442.329 25.0357 443.275 26.1577 445.169 26.9291C447.062 27.6304 450.183 28.4018 454.531 29.2433C460.141 30.2952 464.875 31.5225 468.732 32.925C472.589 34.2574 475.92 36.4664 478.725 39.552C481.6 42.6376 483.038 46.8453 483.038 52.1749C483.038 56.8033 481.74 61.011 479.146 64.7979C476.551 68.5146 472.659 71.495 467.469 73.7391C462.35 75.913 456.109 77 448.745 77Z" fill="#EF5A64"/>
</mask>
<g mask="url(#mask0)">
<rect x="-28.4014" y="52.2782" width="551.201" height="73.6337" fill="#EF5A64"/>
</g>
<mask id="mask1" mask-type="alpha" maskUnits="userSpaceOnUse" x="4" y="0" width="484" height="77">
<path d="M128.964 1.68305L105.401 75.3167H78.7879L66.9013 35.9753L54.3836 75.3167H27.7703L4.20752 1.68305H29.7689L42.6022 43.549L56.1718 1.68305H78.9983L91.8316 44.075L105.401 1.68305H128.964Z" fill="#EF5A64"/>
<path d="M207.058 1.68305V75.3167H182.233V48.1775H159.302V75.3167H134.477V1.68305H159.302V27.7704H182.233V1.68305H207.058Z" fill="#EF5A64"/>
<path d="M280.241 56.5927V75.3167H219.02V1.68305H278.873V20.407H243.424V29.0327H274.561V46.9152H243.424V56.5927H280.241Z" fill="#EF5A64"/>
<path d="M351.019 56.5927V75.3167H289.798V1.68305H349.651V20.407H314.202V29.0327H345.338V46.9152H314.202V56.5927H351.019Z" fill="#EF5A64"/>
<path d="M360.576 1.68305H385.401V56.0668H418.641V75.3167H360.576V1.68305Z" fill="#EF5A64"/>
<path d="M452.953 76.9998C446.852 76.9998 440.891 76.3336 435.07 75.0011C429.32 73.5986 424.586 71.7402 420.87 69.426L428.864 51.3332C432.37 53.3669 436.298 55.0149 440.646 56.2771C444.993 57.4693 449.166 58.0654 453.163 58.0654C456.599 58.0654 459.054 57.7498 460.527 57.1187C461.999 56.4174 462.736 55.4006 462.736 54.0681C462.736 52.5253 461.754 51.3682 459.79 50.5968C457.897 49.8254 454.741 48.9839 450.323 48.0723C444.643 46.8801 439.909 45.6178 436.122 44.2854C432.335 42.8828 429.039 40.6388 426.234 37.5532C423.429 34.3974 422.027 30.1547 422.027 24.8251C422.027 20.1967 423.324 15.989 425.919 12.2021C428.514 8.41527 432.371 5.43486 437.49 3.26092C442.679 1.08697 448.956 0 456.319 0C461.368 0 466.312 0.561018 471.151 1.68305C476.06 2.73496 480.373 4.31283 484.089 6.41665L476.621 24.4043C469.398 20.7577 462.56 18.9344 456.109 18.9344C449.727 18.9344 446.536 20.4772 446.536 23.5628C446.536 25.0354 447.483 26.1575 449.376 26.9289C451.27 27.6302 454.39 28.4016 458.738 29.2431C464.349 30.295 469.082 31.5222 472.939 32.9248C476.796 34.2572 480.127 36.4662 482.932 39.5518C485.808 42.6374 487.245 46.845 487.245 52.1747C487.245 56.8031 485.948 61.0107 483.353 64.7976C480.758 68.5144 476.866 71.4948 471.677 73.7389C466.558 75.9128 460.316 76.9998 452.953 76.9998Z" fill="#EF5A64"/>
</mask>
<g mask="url(#mask1)">
<rect x="-19.9863" y="18.5138" width="551.201" height="35.7649" fill="#EF5A64"/>
</g>
<mask id="mask2" mask-type="alpha" maskUnits="userSpaceOnUse" x="8" y="0" width="484" height="77">
<path d="M133.172 1.68305L109.609 75.3167H82.9959L71.1093 35.9753L58.5916 75.3167H31.9783L8.41553 1.68305H33.9769L46.8102 43.549L60.3798 1.68305H83.2063L96.0396 44.075L109.609 1.68305H133.172Z" fill="#EF5A64"/>
<path d="M211.266 1.68305V75.3167H186.441V48.1775H163.51V75.3167H138.685V1.68305H163.51V27.7704H186.441V1.68305H211.266Z" fill="#EF5A64"/>
<path d="M284.449 56.5927V75.3167H223.228V1.68305H283.081V20.407H247.632V29.0327H278.769V46.9152H247.632V56.5927H284.449Z" fill="#EF5A64"/>
<path d="M355.227 56.5927V75.3167H294.006V1.68305H353.859V20.407H318.41V29.0327H349.546V46.9152H318.41V56.5927H355.227Z" fill="#EF5A64"/>
<path d="M364.784 1.68305H389.609V56.0668H422.849V75.3167H364.784V1.68305Z" fill="#EF5A64"/>
<path d="M457.161 76.9998C451.06 76.9998 445.099 76.3336 439.278 75.0011C433.528 73.5986 428.794 71.7402 425.078 69.426L433.072 51.3332C436.578 53.3669 440.506 55.0149 444.854 56.2771C449.201 57.4693 453.374 58.0654 457.371 58.0654C460.807 58.0654 463.262 57.7498 464.735 57.1187C466.207 56.4174 466.944 55.4006 466.944 54.0681C466.944 52.5253 465.962 51.3682 463.998 50.5968C462.105 49.8254 458.949 48.9839 454.531 48.0723C448.851 46.8801 444.117 45.6178 440.33 44.2854C436.543 42.8828 433.247 40.6388 430.442 37.5532C427.637 34.3974 426.235 30.1547 426.235 24.8251C426.235 20.1967 427.532 15.989 430.127 12.2021C432.722 8.41527 436.579 5.43486 441.698 3.26092C446.887 1.08697 453.164 0 460.527 0C465.576 0 470.52 0.561018 475.359 1.68305C480.268 2.73496 484.581 4.31283 488.297 6.41665L480.829 24.4043C473.606 20.7577 466.768 18.9344 460.317 18.9344C453.935 18.9344 450.744 20.4772 450.744 23.5628C450.744 25.0354 451.691 26.1575 453.584 26.9289C455.478 27.6302 458.598 28.4016 462.946 29.2431C468.557 30.295 473.29 31.5222 477.147 32.9248C481.004 34.2572 484.335 36.4662 487.14 39.5518C490.016 42.6374 491.453 46.845 491.453 52.1747C491.453 56.8031 490.156 61.0107 487.561 64.7976C484.966 68.5144 481.074 71.4948 475.885 73.7389C470.766 75.9128 464.524 76.9998 457.161 76.9998Z" fill="#EF5A64"/>
</mask>
<g mask="url(#mask2)">
<rect x="-15.7788" y="-16.2515" width="551.201" height="35.7649" fill="#EF5A64"/>
</g>
</svg>
