<svg width="33" height="33" viewBox="0 0 33 33" fill="none" xmlns="http://www.w3.org/2000/svg">
<rect width="33" height="33" fill="#EF5A64"/>
<path d="M25.235 12.005C24.7467 11.1365 24.2169 10.9768 23.138 10.916C22.0603 10.8429 19.3501 10.8125 17.0022 10.8125C14.6499 10.8125 11.9386 10.8429 10.862 10.9149C9.78537 10.9768 9.25437 11.1354 8.76162 12.005C8.25875 12.8724 8 14.3664 8 16.9966C8 16.9989 8 17 8 17C8 17.0023 8 17.0034 8 17.0034V17.0056C8 19.6246 8.25875 21.1299 8.76162 21.9882C9.25437 22.8568 9.78425 23.0143 10.8609 23.0874C11.9386 23.1504 14.6499 23.1875 17.0022 23.1875C19.3501 23.1875 22.0602 23.1504 23.1391 23.0885C24.218 23.0154 24.7479 22.8579 25.2361 21.9894C25.7435 21.131 26 19.6257 26 17.0067C26 17.0067 26 17.0034 26 17.0011C26 17.0011 26 16.9989 26 16.9978C26 14.3664 25.7435 12.8724 25.235 12.005ZM14.75 20.375V13.625L20.375 17L14.75 20.375Z" fill="white"/>
</svg>
